#!OML:ASF F:\VICON\USERDATA\INSTALL\SteveWalk\SteveWalk.ASF
:FULLY-SPECIFIED
:DEGREES
122
root -0.441832 16.4691 -19.4991 17.2077 3.40318 0.148661
lowerback -14.8186 -0.207654 1.26481
upperback -5.01324 -0.508347 1.49721
thorax 3.00816 -0.24614 0.765816
lowerneck -4.75089 -0.973635 0.58489
upperneck 9.42739 -1.1079 -2.57879
head 3.89892 -0.641423 -1.0134
rclavicle -9.40189e-015 1.70955e-014
rhumerus -32.5595 -10.2512 -82.8631
rradius 31.5595
rwrist -3.8511
rhand -16.0088 -36.303
rfingers 7.12502
rthumb 10.1916 -66.0361
lclavicle -9.40189e-015 1.70955e-014
lhumerus -38.6585 11.6077 81.4242
lradius 22.9975
lwrist 0.963202
lhand -17.9293 -19.6023
lfingers 7.12502
lthumb 8.33853 10.2131
rfemur -27.6772 -4.38888 26.096
rtibia 35.584
rfoot -24.9493 2.14454
rtoes -10.4768
lfemur -44.7023 3.14747 -21.7973
ltibia 68.8023
lfoot -7.8697 4.69537
ltoes -2.3375
123
root -0.436093 16.4547 -19.3095 17.3772 3.23716 0.282514
lowerback -14.8675 -0.148792 1.15536
upperback -5.13791 -0.409252 1.38956
thorax 2.9029 -0.197495 0.731857
lowerneck -4.36491 -0.937051 0.574195
upperneck 9.27281 -1.06546 -2.53132
head 3.7691 -0.615753 -0.987367
rclavicle -1.08804e-014 3.57812e-015
rhumerus -31.874 -8.99197 -83.5639
rradius 32.9209
rwrist -4.87204
rhand -15.9521 -35.7753
rfingers 7.12502
rthumb 10.2464 -65.5058
lclavicle -1.08804e-014 3.57812e-015
lhumerus -39.6935 12.7482 80.463
lradius 21.6089
lwrist -0.132544
lhand -17.6555 -18.3416
lfingers 7.12502
lthumb 8.60282 11.4631
rfemur -27.0598 -4.67186 25.9534
rtibia 35.4712
rfoot -25.4292 2.53971
rtoes -9.77865
lfemur -45.9136 3.0649 -22.1159
ltibia 67.2451
lfoot -8.66557 5.23269
ltoes -3.04104
124
root -0.426204 16.452 -19.1126 17.5642 3.2385 0.374391
lowerback -15.1002 -0.135211 1.13028
upperback -5.14771 -0.388972 1.31076
thorax 3.01667 -0.18736 0.666659
lowerneck -4.22906 -0.930577 0.644224
upperneck 9.21272 -1.05739 -2.596
head 3.72112 -0.610963 -1.01859
rclavicle 1.93504e-015 9.14409e-015
rhumerus -31.0875 -7.61997 -84.244
rradius 34.348
rwrist -5.94454
rhand -16.0923 -35.6584
rfingers 7.12502
rthumb 10.1111 -65.3955
lclavicle 1.93504e-015 9.14409e-015
lhumerus -40.5068 14.2934 79.2403
lradius 20.205
lwrist -2.00881
lhand -17.2585 -17.5391
lfingers 7.12502
lthumb 8.98591 12.2495
rfemur -26.4135 -5.21392 25.8971
rtibia 35.3472
rfoot -25.9798 2.99333
rtoes -9.1855
lfemur -46.9272 2.8122 -22.3384
ltibia 65.3742
lfoot -9.17061 5.65697
ltoes -2.91581
125
root -0.418576 16.4454 -18.919 17.6489 2.98623 0.42541
lowerback -15.2499 -0.0657461 1.01726
upperback -5.055 -0.284345 1.27539
thorax 3.19433 -0.134812 0.71165
lowerneck -4.20896 -0.940138 0.7768
upperneck 9.05682 -1.06597 -2.7868
head 3.66162 -0.617766 -1.1035
rclavicle -4.08751e-015 2.78299e-015
rhumerus -30.0368 -6.35551 -84.817
rradius 35.5716
rwrist -6.87544
rhand -16.0847 -35.8493
rfingers 7.12502
rthumb 10.1184 -65.586
lclavicle -4.08751e-015 2.78299e-015
lhumerus -41.2498 15.9638 77.9283
lradius 18.9842
lwrist -4.29929
lhand -16.6684 -16.8786
lfingers 7.12502
lthumb 9.55526 12.8847
rfemur -25.6548 -5.64879 25.8156
rtibia 35.1659
rfoot -26.48 3.67245
rtoes -8.04844
lfemur -47.6958 2.80252 -22.54
ltibia 63.2226
lfoot -9.40928 6.02439
ltoes -2.75686
126
root -0.407598 16.4259 -18.7261 17.6604 2.6519 0.388212
lowerback -15.2179 0.0256097 0.996629
upperback -4.98739 -0.162258 1.28066
thorax 3.24779 -0.0742781 0.750403
lowerneck -4.21882 -0.921576 0.794167
upperneck 8.90801 -1.03449 -2.90695
head 3.61192 -0.605893 -1.14319
rclavicle 1.27968e-015 6.75868e-015
rhumerus -29.1283 -5.03432 -85.2696
rradius 36.8985
rwrist -7.84193
rhand -16.0096 -35.0231
rfingers 7.12502
rthumb 10.1909 -64.7562
lclavicle 1.27968e-015 6.75868e-015
lhumerus -42.2601 17.6518 76.4551
lradius 17.8831
lwrist -6.98102
lhand -16.1155 -16.449
lfingers 7.12502
lthumb 10.0887 13.2892
rfemur -24.7719 -6.07155 25.7557
rtibia 34.8751
rfoot -26.9586 4.62676
rtoes -6.52634
lfemur -48.2335 2.87139 -22.648
ltibia 60.8093
lfoot -9.29261 6.83141
ltoes -2.01543
127
root -0.392446 16.4082 -18.5252 17.6331 2.3547 0.313835
lowerback -15.2547 0.102539 1.07022
upperback -4.83435 -0.0764693 1.2956
thorax 3.42799 -0.0316679 0.740091
lowerneck -4.46461 -0.863508 0.783691
upperneck 8.84515 -0.951056 -2.97335
head 3.63974 -0.569007 -1.16177
rclavicle 3.52843e-015 -1.11319e-014
rhumerus -28.2097 -3.61471 -85.6741
rradius 38.384
rwrist -8.8519
rhand -16.003 -34.4104
rfingers 7.12502
rthumb 10.1973 -64.1433
lclavicle 3.52843e-015 -1.11319e-014
lhumerus -43.3076 19.5266 74.8242
lradius 16.9087
lwrist -9.73598
lhand -15.8994 -16.1173
lfingers 7.12502
lthumb 10.2972 13.6106
rfemur -23.7725 -6.57399 25.7006
rtibia 34.4821
rfoot -27.3535 5.61299
rtoes -5.28491
lfemur -48.5291 2.82861 -22.6819
ltibia 58.185
lfoot -9.73221 7.80413
ltoes -0.278217
128
root -0.381807 16.4061 -18.3228 17.6433 1.98358 0.396756
lowerback -15.3256 0.18407 0.950352
upperback -4.70462 0.0476728 1.23158
thorax 3.60204 0.0297644 0.763668
lowerneck -4.73499 -0.813267 0.818704
upperneck 8.82725 -0.887686 -2.96457
head 3.68772 -0.537826 -1.1651
rclavicle 8.29926e-015 7.55382e-015
rhumerus -26.9378 -2.42818 -86.0154
rradius 39.2086
rwrist -9.74197
rhand -15.9399 -35.1034
rfingers 7.12502
rthumb 10.2581 -64.8332
lclavicle 8.29926e-015 7.55382e-015
lhumerus -44.4731 21.0639 73.2487
lradius 16.2074
lwrist -11.9027
lhand -15.7357 -15.629
lfingers 7.12502
lthumb 10.4552 14.091
rfemur -22.7552 -6.95654 25.4668
rtibia 34.0048
rfoot -27.6035 6.1345
rtoes -5.61157
lfemur -48.915 2.78169 -22.8695
ltibia 55.3729
lfoot -10.5331 8.10337
ltoes 0.508261
129
root -0.37254 16.4091 -18.1222 17.712 1.71764 0.39646
lowerback -15.3593 0.290313 0.914289
upperback -4.76227 0.19656 1.16177
thorax 3.5585 0.103115 0.737623
lowerneck -4.45011 -0.812119 0.934529
upperneck 8.67994 -0.895751 -2.994
head 3.5801 -0.536425 -1.19055
rclavicle 1.55301e-015 -5.96354e-015
rhumerus -25.33 -1.63389 -86.2185
rradius 38.6673
rwrist -10.3687
rhand -15.7828 -35.1583
rfingers 7.12502
rthumb 10.4096 -64.8806
lclavicle 1.55301e-015 -5.96354e-015
lhumerus -45.9126 22.0435 71.7425
lradius 15.6077
lwrist -13.6754
lhand -15.548 -14.8343
lfingers 7.12502
lthumb 10.6362 14.8765
rfemur -21.7076 -7.36316 25.3433
rtibia 33.4005
rfoot -27.8336 6.49388
rtoes -6.27762
lfemur -49.3079 2.71609 -22.9035
ltibia 52.3397
lfoot -10.8628 8.21395
ltoes -0.505019
130
root -0.364151 16.404 -17.9226 17.7236 1.53381 0.29451
lowerback -15.4927 0.348807 0.90362
upperback -4.69507 0.269835 1.2004
thorax 3.70013 0.139578 0.798934
lowerneck -4.11983 -0.82094 0.944043
upperneck 8.42735 -0.91005 -3.03043
head 3.42769 -0.541022 -1.19773
rclavicle -9.93923e-017 -6.75868e-015
rhumerus -24.7509 -0.637069 -86.3666
rradius 40.1809
rwrist -11.0533
rhand -15.508 -35.7074
rfingers 7.12502
rthumb 10.6748 -65.4163
lclavicle -9.93923e-017 -6.75868e-015
lhumerus -47.2663 23.6 69.9006
lradius 14.8241
lwrist -15.9247
lhand -15.5329 -14.1283
lfingers 7.12502
lthumb 10.6508 15.5817
rfemur -20.5496 -7.769 25.3145
rtibia 32.7194
rfoot -28.0215 6.92387
rtoes -6.50255
lfemur -49.3797 2.60065 -22.7079
ltibia 49.1047
lfoot -11.2214 8.12052
ltoes 0.686677
131
root -0.358246 16.4014 -17.724 17.7195 1.21334 0.289744
lowerback -15.5908 0.338194 0.716683
upperback -4.55984 0.27589 1.28573
thorax 3.89408 0.142252 0.997198
lowerneck -4.16739 -0.787226 0.737143
upperneck 8.37836 -0.853937 -2.98994
head 3.42142 -0.518302 -1.14533
rclavicle -3.77691e-015 -2.38542e-015
rhumerus -23.768 0.630411 -86.4901
rradius 41.2848
rwrist -11.6708
rhand -15.3686 -35.7869
rfingers 7.12502
rthumb 10.8093 -65.4887
lclavicle -3.77691e-015 -2.38542e-015
lhumerus -48.7414 25.5804 67.7596
lradius 14.0751
lwrist -18.3494
lhand -15.6218 -13.8578
lfingers 7.12502
lthumb 10.565 15.8566
rfemur -19.369 -8.05869 25.1309
rtibia 31.988
rfoot -28.1623 7.30301
rtoes -7.35437
lfemur -49.4921 2.84787 -22.8964
ltibia 45.6454
lfoot -10.6048 8.64197
ltoes -5.37915
132
root -0.352102 16.3987 -17.5287 17.7419 0.601956 0.362963
lowerback -15.4625 0.420993 0.419056
upperback -4.5272 0.430682 1.29764
thorax 3.85554 0.217875 1.20575
lowerneck -4.34859 -0.770427 0.614554
upperneck 8.43359 -0.816522 -3.03709
head 3.47671 -0.507239 -1.14035
rclavicle 1.01753e-014 -3.97569e-015
rhumerus -22.821 1.77563 -86.5547
rradius 42.0954
rwrist -12.184
rhand -15.1946 -35.0944
rfingers 7.12502
rthumb 10.977 -64.7874
lclavicle 1.01753e-014 -3.97569e-015
lhumerus -50.2084 26.6131 66.22
lradius 13.7388
lwrist -19.9437
lhand -15.6022 -13.3697
lfingers 7.12502
lthumb 10.5839 16.3438
rfemur -18.2545 -8.18042 24.7751
rtibia 31.2096
rfoot -28.1949 7.99349
rtoes -7.95269
lfemur -49.451 3.13908 -23.0592
ltibia 42.0645
lfoot -10.43 8.87878
ltoes -7.71972
133
root -0.343852 16.3957 -17.3288 17.7132 -0.120516 0.395503
lowerback -15.2528 0.606128 0.202571
upperback -4.46677 0.710615 1.2564
thorax 3.79952 0.355572 1.33384
lowerneck -4.62708 -0.745541 0.598916
upperneck 8.47995 -0.777662 -3.06545
head 3.54786 -0.491968 -1.1489
rclavicle -1.27968e-014 -1.35174e-014
rhumerus -21.9733 2.67626 -86.5661
rradius 43.004
rwrist -12.7544
rhand -15.0783 -34.9809
rfingers 7.12502
rthumb 11.0892 -64.668
lclavicle -1.27968e-014 -1.35174e-014
lhumerus -51.5669 27.2651 64.8811
lradius 13.5863
lwrist -21.4494
lhand -15.47 -12.9415
lfingers 7.12502
lthumb 10.7114 16.7654
rfemur -17.0528 -8.31886 24.3979
rtibia 30.3182
rfoot -28.1518 8.98121
rtoes -8.24874
lfemur -49.279 3.43931 -23.12
ltibia 38.4173
lfoot -10.2336 8.96549
ltoes -8.72056
